<?xml version="1.0" standalone="no"?>
<!DOCTYPE svg PUBLIC "-//W3C//DTD SVG 20010904//EN"
 "http://www.w3.org/TR/2001/REC-SVG-20010904/DTD/svg10.dtd">
<svg version="1.0" xmlns="http://www.w3.org/2000/svg"
 width="1800.000000pt" height="1800.000000pt" viewBox="0 0 1800.000000 1800.000000"
 preserveAspectRatio="xMidYMid meet">
<metadata>
Created by potrace 1.11, written by Peter Selinger 2001-2013
</metadata>
<g transform="translate(0.000000,1800.000000) scale(0.100000,-0.100000)"
fill="#000000" stroke="none">
<path d="M8555 17989 c-687 -35 -1391 -151 -2030 -334 -1297 -373 -2473 -1019
-3499 -1924 -181 -160 -597 -576 -757 -757 -652 -739 -1171 -1558 -1547 -2439
-448 -1050 -685 -2138 -718 -3300 l-7 -235 9003 0 9003 0 -7 235 c-62 2147
-844 4128 -2265 5739 -160 181 -576 597 -757 757 -1359 1199 -2975 1941 -4764
2188 -494 68 -1149 96 -1655 70z m790 -1129 c724 -47 1223 -255 1655 -689 157
-158 246 -278 330 -446 131 -262 200 -580 200 -914 0 -252 -64 -491 -206 -774
-179 -356 -400 -573 -989 -967 -324 -218 -487 -377 -576 -566 -49 -102 -76
-217 -89 -370 -5 -65 -10 -122 -10 -126 0 -5 -284 -8 -630 -8 l-630 0 5 148
c11 304 15 372 31 453 45 242 138 444 295 639 90 112 143 156 384 318 446 301
599 451 740 733 78 153 90 209 90 404 0 196 -15 278 -70 394 -87 182 -215 301
-405 378 -288 118 -641 115 -936 -8 -191 -80 -351 -248 -469 -494 -82 -169
-124 -362 -109 -494 l6 -58 -453 -6 c-249 -4 -571 -7 -716 -7 l-263 0 0 108
c0 59 5 181 10 272 36 595 143 917 414 1240 339 405 763 670 1236 774 300 66
755 92 1155 66z m305 -6020 l0 -630 -625 0 -625 0 0 630 0 630 625 0 625 0 0
-630z"/>
<path d="M40 8168 c0 -18 9 -112 20 -208 85 -732 267 -1480 528 -2165 l57
-150 768 -3 767 -2 0 1280 0 1280 -1070 0 -1070 0 0 -32z"/>
<path d="M3680 6920 l0 -1280 1280 0 1280 0 0 1280 0 1280 -1280 0 -1280 0 0
-1280z"/>
<path d="M7740 6920 l0 -1280 1280 0 1280 0 0 1280 0 1280 -1280 0 -1280 0 0
-1280z"/>
<path d="M11800 6920 l0 -1280 1280 0 1280 0 0 1280 0 1280 -1280 0 -1280 0 0
-1280z"/>
<path d="M15860 6920 l0 -1280 748 2 747 3 57 150 c261 685 443 1433 528 2165
11 96 20 190 20 208 l0 32 -1050 0 -1050 0 0 -1280z"/>
<path d="M1051 4778 c208 -415 637 -1057 987 -1481 59 -71 115 -138 124 -150
17 -21 18 21 18 836 l0 857 -580 0 -580 0 31 -62z"/>
<path d="M3680 3560 l0 -1280 1280 0 1280 0 0 1280 0 1280 -1280 0 -1280 0 0
-1280z"/>
<path d="M7740 3560 l0 -1280 1280 0 1280 0 0 1280 0 1280 -1280 0 -1280 0 0
-1280z"/>
<path d="M11800 3560 l0 -1280 1280 0 1280 0 0 1280 0 1280 -1280 0 -1280 0 0
-1280z"/>
<path d="M15860 4008 l1 -833 22 26 c378 445 842 1131 1066 1577 l31 62 -560
0 -560 0 0 -832z"/>
<path d="M4105 1447 c543 -363 1324 -743 1993 -968 l142 -48 0 525 0 524
-1092 0 -1093 0 50 -33z"/>
<path d="M7740 786 c0 -653 1 -695 18 -700 21 -6 342 -42 507 -56 584 -50
1250 -35 1858 40 86 11 162 20 167 20 7 0 10 247 10 695 l0 695 -1280 0 -1280
0 0 -694z"/>
<path d="M11800 965 c0 -283 4 -515 8 -515 15 0 236 77 402 140 559 212 1235
556 1685 857 l50 33 -1073 0 -1072 0 0 -515z"/>
</g>
</svg>
